<?xml version="1.0" standalone="no"?>
<!DOCTYPE svg PUBLIC "-//W3C//DTD SVG 20010904//EN"
 "http://www.w3.org/TR/2001/REC-SVG-20010904/DTD/svg10.dtd">
<svg version="1.0" xmlns="http://www.w3.org/2000/svg"
 width="260.000000pt" height="260.000000pt" viewBox="0 0 260.000000 260.000000"
 preserveAspectRatio="xMidYMid meet">
<metadata>
Created by potrace 1.11, written by Peter Selinger 2001-2013
</metadata>
<g transform="translate(0.000000,260.000000) scale(0.100000,-0.100000)"
fill="#000000" stroke="none">
<path d="M1206 2563 c-1 -2 -22 -5 -47 -8 -24 -2 -53 -6 -64 -9 -11 -2 -40 -7
-64 -11 -70 -12 -206 -61 -306 -111 -188 -94 -373 -260 -484 -433 l-35 -54 30
-24 c61 -49 244 -175 349 -239 206 -126 433 -228 599 -270 l69 -17 41 48 c136
162 320 303 556 428 145 76 396 167 462 167 25 0 23 7 -19 59 -195 239 -460
396 -768 456 -62 12 -311 26 -319 18z"/>
<path d="M2286 1823 c-202 -51 -384 -140 -591 -287 -121 -86 -251 -215 -285
-282 -23 -46 -25 -58 -25 -214 0 -91 4 -194 8 -230 4 -36 10 -83 12 -105 3
-22 7 -51 10 -65 3 -14 8 -41 11 -60 3 -19 7 -42 10 -50 3 -8 8 -31 10 -50 11
-82 100 -397 118 -417 9 -10 23 -9 66 3 69 19 68 19 110 34 19 8 36 13 37 12
2 -1 47 21 100 49 93 48 188 111 244 161 14 13 41 37 60 53 68 61 147 162 226
290 41 66 105 229 126 321 33 142 36 173 33 324 -4 173 -8 208 -37 306 -10 38
-21 76 -23 85 -4 15 -24 64 -49 122 -15 33 -39 33 -171 0z"/>
<path d="M92 1678 c-53 -184 -57 -211 -57 -393 1 -159 15 -252 61 -392 103
-315 339 -586 642 -738 50 -25 92 -45 95 -45 3 0 18 -5 34 -11 15 -6 29 -10
30 -10 2 0 21 -6 43 -14 22 -8 66 -19 98 -25 31 -5 68 -12 82 -15 47 -11 240
-13 240 -4 0 5 -15 60 -34 122 -45 150 -98 384 -111 487 -2 19 -7 55 -10 80
-14 112 -18 166 -19 320 -1 156 -2 165 -21 168 -128 21 -421 143 -599 248 -23
14 -56 32 -73 41 -18 9 -33 20 -33 25 0 4 -5 8 -11 8 -10 0 -102 61 -260 173
-37 26 -69 47 -71 47 -3 0 -15 -33 -26 -72z"/>
</g>
</svg>
